<svg enable-background="new 0 0 512 512" height="512" viewBox="0 0 512 512" width="512" xmlns="http://www.w3.org/2000/svg"><g><g><g><g><path d="m358.604 7.5h-299.145-.063c-17.399 0-31.505 14.105-31.505 31.504v.063 391.705.063c0 17.4 14.105 31.505 31.505 31.505h.063 299.145c14.964 0 27.095-12.131 27.095-27.095v-400.65c0-14.964-12.131-27.095-27.095-27.095z" fill="#ebb044"/><path d="m358.604 7.5h-65.321c14.964 0 27.095 12.131 27.095 27.095v400.65c0 14.964-12.131 27.095-27.095 27.095h65.321c14.964 0 27.095-12.131 27.095-27.095v-400.65c0-14.964-12.131-27.095-27.095-27.095z" fill="#e29624"/><g><g><g><g><g><g><g><g><g><g><g><g><g><path d="m330 49.66h-228.381c-17.434 0-31.568 14.133-31.568 31.568v391.768c0 17.399 14.105 31.505 31.505 31.505h299.208c14.964 0 27.095-12.131 27.095-27.095v-329.888c0-7.186-2.855-14.078-7.936-19.159l-70.764-70.764c-5.081-5.081-11.973-7.935-19.159-7.935z" fill="#fffbe4"/><g><path d="m419.923 128.359-58.044-58.044v407.089c0 14.964-12.131 27.095-27.095 27.095h65.979c14.964 0 27.095-12.131 27.095-27.095v-329.886c.001-7.186-2.854-14.078-7.935-19.159z" fill="#fbf4c6"/></g><path d="m419.923 128.359-70.764-70.764c-2.317-2.317-5.01-4.17-7.936-5.502v67.404c0 9.277 7.521 16.798 16.798 16.798h67.403c-1.331-2.926-3.184-5.619-5.501-7.936z" fill="#eabc6b"/></g></g></g></g></g></g></g></g></g></g></g></g><g><path d="m457.845 221.812 23.977-23.977c3.058-3.058 3.058-8.016 0-11.074l-14.37-14.37c-3.058-3.058-8.016-3.058-11.075 0l-23.977 23.976z" fill="#5766cb"/><g><g><path d="m233.684 450.754-39.472 15.209c-3.732 1.438-7.401-2.231-5.963-5.963l15.209-39.472c2.519-6.537 6.379-12.473 11.333-17.426l209.305-209.305c4.365-4.365 11.443-4.365 15.808 0l20.512 20.512c4.365 4.365 4.365 11.443 0 15.808l-209.306 209.305c-4.953 4.953-10.89 8.813-17.426 11.332z" fill="#dd636e"/></g><path d="m361.879 328.652 98.536-98.536c4.365-4.365 4.365-11.443 0-15.808l-20.512-20.512c-4.365-4.365-11.443-4.365-15.808 0l-62.215 62.215v72.641z" fill="#da4a54"/><g><path d="m233.684 450.754-39.472 15.209c-3.732 1.438-7.401-2.231-5.963-5.963l15.209-39.472c2.519-6.537 6.379-12.473 11.333-17.426l36.32 36.32c-4.954 4.953-10.891 8.813-17.427 11.332z" fill="#938bc6"/></g></g></g></g></g></g></g><g><path d="m153.251 110.553h-42.331c-4.143 0-7.5 3.358-7.5 7.5s3.357 7.5 7.5 7.5h13.58v69.152c0 4.142 3.357 7.5 7.5 7.5s7.5-3.358 7.5-7.5v-69.152h13.751c4.143 0 7.5-3.358 7.5-7.5s-3.358-7.5-7.5-7.5z"/><path d="m192.785 125.553h104.934c4.143 0 7.5-3.358 7.5-7.5s-3.357-7.5-7.5-7.5h-104.934c-4.143 0-7.5 3.358-7.5 7.5s3.357 7.5 7.5 7.5z"/><path d="m192.785 163.879h104.934c4.143 0 7.5-3.358 7.5-7.5s-3.357-7.5-7.5-7.5h-104.934c-4.143 0-7.5 3.358-7.5 7.5s3.357 7.5 7.5 7.5z"/><path d="m192.785 202.205h104.934c4.143 0 7.5-3.358 7.5-7.5s-3.357-7.5-7.5-7.5h-104.934c-4.143 0-7.5 3.358-7.5 7.5s3.357 7.5 7.5 7.5z"/><path d="m487.125 181.457-14.37-14.369c-5.991-5.993-15.688-5.994-21.682-.001l-15.714 15.714v-35.283c0-9.241-3.599-17.928-10.132-24.462l-32.028-32.028v-56.433c0-19.076-15.52-34.595-34.595-34.595h-299.208c-21.507 0-39.004 17.497-39.004 39.067v99.705c0 4.142 3.357 7.5 7.5 7.5s7.5-3.358 7.5-7.5v-99.768c0-13.235 10.769-24.004 24.068-24.004h299.145c10.805 0 19.595 8.79 19.595 19.595v41.433l-23.736-23.736c-6.534-6.534-15.222-10.132-24.462-10.132h-228.383c-21.542 0-39.067 17.525-39.067 39.067v373.613h-3.155c-13.235 0-24.004-10.769-24.004-24.068v-256.756c0-4.142-3.357-7.5-7.5-7.5s-7.5 3.358-7.5 7.5v256.82c0 21.507 17.497 39.005 39.067 39.005h3.092v3.155c0 21.507 17.497 39.004 39.005 39.004h299.208c19.075 0 34.595-15.519 34.595-34.595v-160.893l30.355-30.356c7.998-7.997 7.999-20.94.001-28.938l-10.898-10.898 10.901-10.901c4.045-4.046 6.199-9.834 5.227-16.101l16.18-16.181c5.976-5.976 5.976-15.702-.001-21.68zm-138.402-113.691 31.669 31.669c.002.002.004.004.006.006l29.353 29.353h-51.731c-5.127 0-9.298-4.171-9.298-9.298v-51.73zm106.386 200.06c2.134 2.134 2.135 5.589-.001 7.724l-19.749 19.749v-29.519l8.852-8.852zm.002-43.013-16.204 16.204s0 0 0 0l-139.164 139.165c-2.929 2.929-2.929 7.678 0 10.606 2.93 2.929 7.678 2.929 10.607 0l110.009-110.009v29.519l-33.594 33.594c-2.929 2.929-2.929 7.678 0 10.606 2.93 2.929 7.678 2.929 10.607 0l22.986-22.987v145.893c0 10.805-8.79 19.595-19.595 19.595h-299.207c-13.236 0-24.005-10.768-24.005-24.004v-391.768c0-13.271 10.797-24.067 24.067-24.067h228.382c1.264 0 2.508.125 3.723.357v61.98c0 13.398 10.9 24.298 24.298 24.298h61.981c.232 1.215.357 2.459.357 3.723v39.585c-1.709 1.368 11.458-11.562-210.873 210.695-5.729 5.73-10.113 12.47-13.026 20.033l-15.209 39.472c-1.721 4.465-.646 9.537 2.736 12.921 3.402 3.401 8.476 4.451 12.921 2.738l39.473-15.209c7.563-2.914 14.303-7.297 20.033-13.028l29.201-29.201c2.929-2.929 2.929-7.678 0-10.606s-7.677-2.93-10.607 0l-23.897 23.897-25.713-25.713 204.001-204.002c1.432-1.433 3.765-1.435 5.2 0l20.513 20.513c1.413 1.414 1.457 3.742-.001 5.2zm-239.845 189.371 24.762 24.761c-2.796 1.949-5.813 3.566-9.039 4.81l-33.401 12.87 12.869-33.401c1.243-3.227 2.859-6.244 4.809-9.04zm261.252-221.652-13.637 13.637-14.838-14.839 13.637-13.637c.126-.128.334-.134.468 0l14.37 14.369c.129.13.129.341 0 .47z"/></g></g></svg>