<svg id="Layer_1" height="512" viewBox="0 0 524 518" width="512" xmlns="http://www.w3.org/2000/svg"><g id="Layer_41"><g><g><g><path d="m211.6 423.3h306.4v88.7h-306.4z" fill="#a87140"/><path d="m518 518h-306.4c-3.3 0-6-2.7-6-6v-88.7c0-3.3 2.7-6 6-6h306.4c3.3 0 6 2.7 6 6v88.7c0 3.3-2.7 6-6 6zm-300.4-12h294.4v-76.7h-294.4z"/></g><g><path d="m211.6 6h306.4v321.6h-306.4z" fill="#bb844c"/><path d="m518 333.6h-306.4c-3.3 0-6-2.7-6-6v-321.6c0-3.3 2.7-6 6-6h306.4c3.3 0 6 2.7 6 6v321.6c0 3.3-2.7 6-6 6zm-300.4-12h294.4v-309.6h-294.4z"/></g><g><path d="m211.6 6h306.4v50.5h-306.4z" fill="#a87140"/><path d="m518 62.5h-306.4c-3.3 0-6-2.7-6-6v-50.5c0-3.3 2.7-6 6-6h306.4c3.3 0 6 2.7 6 6v50.5c0 3.3-2.7 6-6 6zm-300.4-12h294.4v-38.5h-294.4z"/></g><g><path d="m211.6 327.6h306.4v95.7h-306.4z" fill="#a87140"/><path d="m518 429.3h-306.4c-3.3 0-6-2.7-6-6v-95.7c0-3.3 2.7-6 6-6h306.4c3.3 0 6 2.7 6 6v95.7c0 3.3-2.7 6-6 6zm-300.4-12h294.4v-83.7h-294.4z"/></g><path d="m358.8 56.5h12v271.1h-12z"/><path d="m399 156.6h12v43.6h-12z"/><path d="m321.5 156.6h12v43.6h-12z"/><path d="m327.5 352.5h68.9v12h-68.9z"/><path d="m327.5 455h68.9v12h-68.9z"/></g><g><g><path d="m157.9 129.4h-107.6l12-82.7h83.6z" fill="#b8bcba"/><path d="m157.9 135.4h-107.6c-3.3 0-6-2.6-6.1-5.9 0-.3 0-.6.1-1l12-82.7c.5-2.9 3-5.1 6-5.1h83.6c3 0 5.5 2.2 6 5.1l12 82.7c.5 3.3-1.8 6.3-5 6.8-.4.1-.7.1-1 .1zm-100.7-12h93.8l-10.3-70.7h-73.2z"/></g><path d="m98.1 129.4h12v381.3h-12z"/><path d="m79.1 504.7h52.3v12h-52.3z"/></g><g><g><path d="m308 510.7h-26l-11.5-36.6h37.5z" fill="#a87140"/><path d="m308 516.7h-26c-2.6 0-5-1.7-5.8-4.2l-11.4-36.6c-.6-1.8-.3-3.8.8-5.3 1.1-1.6 3-2.5 4.9-2.5h37.5c3.3 0 6 2.7 6 6v36.6c0 3.3-2.7 6-6 6zm-21.6-12h15.6v-24.6h-23.3z"/></g><g><path d="m29.5 510.7h26.1l11.5-36.6h-37.6z" fill="#a87140"/><path d="m55.6 516.7h-26.1c-3.3 0-6-2.7-6-6v-36.6c0-3.3 2.7-6 6-6h37.6c1.9 0 3.7.9 4.8 2.5 1.2 1.5 1.5 3.5.9 5.3l-11.4 36.6c-.8 2.5-3.2 4.2-5.8 4.2zm-20.1-12h15.7l7.7-24.6h-23.4z"/></g><g><path d="m18.9 407.6h295.7c7.1 0 12.9 5.8 12.9 12.9v40.8c0 7.1-5.8 12.9-12.9 12.9h-295.7c-7.1 0-12.9-5.8-12.9-12.9v-40.8c0-7.1 5.8-12.9 12.9-12.9z" fill="#bb844c"/><path d="m314.5 480.1h-295.6c-10.4 0-18.9-8.5-18.9-18.9v-40.7c0-10.4 8.5-18.9 18.9-18.9h295.6c10.5 0 18.9 8.4 19 18.9v40.7c-.1 10.5-8.5 18.9-19 18.9zm-295.6-66.5c-3.8 0-6.9 3.1-6.9 6.9v40.7c0 3.8 3.1 6.9 6.9 6.9h295.6c3.8.1 6.9-3 7-6.8v-.1-40.7c0-3.8-3.1-6.9-6.9-6.9h-.1z"/></g><g><path d="m45.2 341h243c21.6 0 39.2 17.6 39.2 39.2v14.4c0 7.1-5.8 12.9-12.9 12.9h-295.6c-7.1 0-12.8-5.7-12.9-12.8v-14.5c0-21.6 17.6-39.2 39.2-39.2z" fill="#c6cdc9"/><path d="m314.5 413.6h-295.6c-10.4 0-18.9-8.5-18.9-18.9v-14.5c.1-24.9 20.3-45.1 45.2-45.2h243.1c24.9.1 45.1 20.3 45.2 45.2v14.5c-.1 10.5-8.5 18.9-19 18.9zm-269.3-66.6c-18.3 0-33.2 14.9-33.2 33.2v14.5c0 3.8 3.1 6.9 6.9 6.9h295.6c3.8.1 6.9-3 7-6.8v-.1-14.5c0-18.3-14.9-33.2-33.2-33.2z"/></g><g><path d="m58 237.8h215.8c17.6 0 31.3 12.9 29.7 27.8l-8.4 75.4h-258.4l-8.4-75.4c-1.6-14.9 12.1-27.8 29.7-27.8z" fill="#b8bcba"/><path d="m295.1 347h-258.4c-3.1 0-5.6-2.3-6-5.3l-8.3-75.4c-.9-8.2 1.8-16.4 7.4-22.5 6.8-7.6 17.1-12 28.2-12h215.8c11.1 0 21.4 4.4 28.2 12 5.6 6.1 8.3 14.3 7.4 22.5l-8.3 75.4c-.4 3-2.9 5.3-6 5.3zm-253-12h247.6l7.8-70c.5-4.8-1.2-9.6-4.5-13.2-4.5-5.1-11.5-8-19.2-8h-215.8c-7.7 0-14.7 2.9-19.2 8-3.3 3.6-5 8.4-4.5 13.2z"/></g></g></g></g></svg>