<svg height="512" viewBox="0 0 64 64" width="512" xmlns="http://www.w3.org/2000/svg"><g id="House_Location" data-name="House Location"><path d="m32 4a19.0216 19.0216 0 0 0 -19 19c0 15.47 17.5 35.7979 18.2451 36.6558a1 1 0 0 0 1.51 0c.7449-.8579 18.2449-21.1858 18.2449-36.6558a19.0216 19.0216 0 0 0 -19-19z" fill="#185ADB"/><circle cx="32" cy="23" fill="#fafafa" r="15"/><path d="m41.6641 21.2524-9-8a.9991.9991 0 0 0 -1.3282 0l-9 8a1 1 0 0 0 .6641 1.7476h2v7a1 1 0 0 0 1 1h3a1 1 0 0 0 1-1v-3h4v3a1 1 0 0 0 1 1h3a1 1 0 0 0 1-1v-7h2a1 1 0 0 0 .6641-1.7476z" fill="#333"/></g></svg>