<?xml version="1.0" encoding="iso-8859-1"?>
<!-- Generator: Adobe Illustrator 19.0.0, SVG Export Plug-In . SVG Version: 6.00 Build 0)  -->
<svg version="1.1" id="Capa_1" xmlns="http://www.w3.org/2000/svg" xmlns:xlink="http://www.w3.org/1999/xlink" x="0px" y="0px"
	 viewBox="0 0 512.002 512.002" style="enable-background:new 0 0 512.002 512.002;" xml:space="preserve">
<polygon style="fill:#965353;" points="152,399.998 152,455.998 112,455.998 112,359.998 152,359.998 "/>
<polygon style="fill:#FFD2A6;" points="144,231.998 8,231.998 8,359.998 112,359.998 152,359.998 248,359.998 248,231.998 "/>
<rect x="216" y="231.998" style="fill:#F7C292;" width="32" height="128"/>
<polygon style="fill:#ED5565;" points="480,185.998 312,87.998 144,185.998 120,199.998 120,167.998 312,55.998 504,167.998 
	504,199.998 "/>
<rect x="368" y="239.998" style="fill:#F5F7FA;" width="80" height="24"/>
<rect x="368" y="263.998" style="fill:#5D9CEC;" width="80" height="56"/>
<rect x="288" y="295.998" style="fill:#ED5565;" width="48" height="104"/>
<circle style="fill:#5D9CEC;" cx="312" cy="175.998" r="32"/>
<path style="fill:#E6E9ED;" d="M480,185.998v214H336v-104h-48v104H152v-40h96v-128H144v-46l168-98L480,185.998z M448,319.998v-56
	v-24h-80v24v56H448z M312,207.998c17.68,0,32-14.32,32-32s-14.32-32-32-32s-32,14.32-32,32S294.32,207.998,312,207.998z"/>
<polygon style="fill:#CCD1D9;" points="448,167.334 448,239.998 448,263.998 448,319.998 448,399.998 480,399.998 480,185.998 "/>
<polygon style="fill:#DA4453;" points="472,181.334 480,185.998 504,199.998 504,167.998 472,149.334 "/>
<polygon style="fill:#87BCF4;" points="410.832,319.998 386.832,319.998 405.168,263.998 429.168,263.998 "/>
<path d="M120.008,175.998c-2.752,0-5.432-1.424-6.92-3.968c-2.216-3.824-0.928-8.72,2.88-10.944l192-112
	c3.816-2.2,8.712-0.928,10.944,2.88c2.216,3.824,0.928,8.72-2.88,10.944l-192,112C122.768,175.646,121.376,175.998,120.008,175.998z
	"/>
<path d="M503.992,175.998c-1.368,0-2.76-0.352-4.024-1.088l-192-112c-3.816-2.224-5.104-7.128-2.88-10.944
	c2.232-3.816,7.144-5.088,10.944-2.88l192,112c3.816,2.224,5.104,7.128,2.88,10.944
	C509.424,174.574,506.744,175.998,503.992,175.998z"/>
<path d="M120.008,207.998c-2.752,0-5.432-1.424-6.92-3.968c-2.216-3.824-0.928-8.72,2.88-10.944l192-112
	c3.816-2.208,8.712-0.928,10.944,2.88c2.216,3.824,0.928,8.72-2.88,10.944l-192,112
	C122.768,207.646,121.376,207.998,120.008,207.998z"/>
<path d="M503.992,207.998c-1.368,0-2.76-0.352-4.024-1.088l-192-112c-3.816-2.224-5.104-7.128-2.88-10.944
	c2.232-3.816,7.144-5.096,10.944-2.88l192,112c3.816,2.224,5.104,7.128,2.88,10.944
	C509.424,206.574,506.744,207.998,503.992,207.998z"/>
<path d="M120,207.998c-4.424,0-8-3.576-8-8v-32c0-4.424,3.576-8,8-8s8,3.576,8,8v32C128,204.422,124.424,207.998,120,207.998z"/>
<path d="M504,207.998c-4.424,0-8-3.576-8-8v-32c0-4.424,3.576-8,8-8s8,3.576,8,8v32C512,204.422,508.424,207.998,504,207.998z"/>
<path d="M144,239.998c-4.424,0-8-3.576-8-8v-46.216c0-4.424,3.576-8,8-8s8,3.576,8,8v46.216
	C152,236.422,148.424,239.998,144,239.998z"/>
<path d="M480,407.998c-4.424,0-8-3.576-8-8V185.782c0-4.424,3.576-8,8-8s8,3.576,8,8v214.216
	C488,404.422,484.424,407.998,480,407.998z"/>
<path d="M480,407.998H152c-4.424,0-8-3.576-8-8s3.576-8,8-8h328c4.424,0,8,3.576,8,8S484.424,407.998,480,407.998z"/>
<path d="M336,407.998h-48c-4.424,0-8-3.576-8-8v-104c0-4.424,3.576-8,8-8h48c4.424,0,8,3.576,8,8v104
	C344,404.422,340.424,407.998,336,407.998z M296,391.998h32v-88h-32V391.998z"/>
<path d="M448,327.998h-80c-4.424,0-8-3.576-8-8v-80c0-4.424,3.576-8,8-8h80c4.424,0,8,3.576,8,8v80
	C456,324.422,452.424,327.998,448,327.998z M376,311.998h64v-64h-64V311.998z"/>
<path d="M448,271.998h-80c-4.424,0-8-3.576-8-8s3.576-8,8-8h80c4.424,0,8,3.576,8,8S452.424,271.998,448,271.998z"/>
<path d="M312,215.998c-22.056,0-40-17.944-40-40s17.944-40,40-40s40,17.944,40,40S334.056,215.998,312,215.998z M312,151.998
	c-13.232,0-24,10.768-24,24s10.768,24,24,24s24-10.768,24-24S325.232,151.998,312,151.998z"/>
<path d="M312,215.998c-4.424,0-8-3.576-8-8v-64c0-4.424,3.576-8,8-8s8,3.576,8,8v64C320,212.422,316.424,215.998,312,215.998z"/>
<path d="M344,183.998h-64c-4.424,0-8-3.576-8-8s3.576-8,8-8h64c4.424,0,8,3.576,8,8S348.424,183.998,344,183.998z"/>
<path d="M248,367.998H8c-4.424,0-8-3.576-8-8v-128c0-4.424,3.576-8,8-8h240c4.424,0,8,3.576,8,8v128
	C256,364.422,252.424,367.998,248,367.998z M16,351.998h224v-112H16V351.998z"/>
<path d="M112,463.998c-4.424,0-8-3.576-8-8v-96c0-4.424,3.576-8,8-8s8,3.576,8,8v96C120,460.422,116.424,463.998,112,463.998z"/>
<path d="M152,463.998c-4.424,0-8-3.576-8-8v-96c0-4.424,3.576-8,8-8s8,3.576,8,8v96C160,460.422,156.424,463.998,152,463.998z"/>
<path d="M160,463.998h-56c-4.424,0-8-3.576-8-8s3.576-8,8-8h56c4.424,0,8,3.576,8,8S164.424,463.998,160,463.998z"/>
<path d="M88,327.998c-1.032,0-2.072-0.192-3.08-0.616c-4.08-1.696-6.008-6.384-4.304-10.464l20-48c1.712-4.08,6.4-6,10.464-4.304
	c4.08,1.696,6.008,6.384,4.304,10.464l-20,48C94.104,326.15,91.136,327.998,88,327.998z"/>
<path d="M128,327.998c-3.136,0-6.104-1.848-7.384-4.92l-20-48c-1.704-4.08,0.224-8.768,4.304-10.464
	c4.072-1.704,8.76,0.224,10.464,4.304l20,48c1.704,4.08-0.224,8.768-4.304,10.464C130.072,327.806,129.032,327.998,128,327.998z"/>
<path d="M124.664,319.998H91.336c-4.424,0-8-3.576-8-8s3.576-8,8-8h33.328c4.424,0,8,3.576,8,8S129.088,319.998,124.664,319.998z"/>
<path d="M152,327.998c-4.424,0-8-3.576-8-8v-48c0-4.424,3.576-8,8-8s8,3.576,8,8v48C160,324.422,156.424,327.998,152,327.998z"/>
<path d="M168,327.998h-16c-4.424,0-8-3.576-8-8s3.576-8,8-8h16c4.424,0,8,3.576,8,8S172.424,327.998,168,327.998z"/>
<path d="M192,327.998c-4.424,0-8-3.576-8-8v-48c0-4.424,3.576-8,8-8s8,3.576,8,8v48C200,324.422,196.424,327.998,192,327.998z"/>
<path d="M216,279.998h-24c-4.424,0-8-3.576-8-8s3.576-8,8-8h24c4.424,0,8,3.576,8,8S220.424,279.998,216,279.998z"/>
<path d="M216,327.998h-24c-4.424,0-8-3.576-8-8s3.576-8,8-8h24c4.424,0,8,3.576,8,8S220.424,327.998,216,327.998z"/>
<path d="M208,303.998h-16c-4.424,0-8-3.576-8-8s3.576-8,8-8h16c4.424,0,8,3.576,8,8S212.424,303.998,208,303.998z"/>
<path d="M40,291.998c-4.424,0-8-3.576-8-8c0-11.032,8.968-20,20-20c8.48,0,16.064,5.368,18.864,13.368
	c1.472,4.168-0.728,8.736-4.896,10.192c-4.144,1.48-8.728-0.72-10.192-4.896c-0.568-1.592-2.08-2.664-3.776-2.664c-2.2,0-4,1.8-4,4
	C48,288.422,44.424,291.998,40,291.998z"/>
<path d="M52,327.998c-8.48,0-16.064-5.368-18.864-13.368c-1.472-4.168,0.728-8.736,4.896-10.192
	c4.16-1.488,8.736,0.728,10.192,4.896c0.568,1.592,2.08,2.664,3.776,2.664c2.2,0,4-1.8,4-4c0-4.424,3.576-8,8-8s8,3.576,8,8
	C72,319.03,63.032,327.998,52,327.998z"/>
<path d="M64,315.998c-4.424,0-8-3.576-8-8c-0.512-1.312-5.112-3.608-7.576-4.84C41.88,299.878,32,294.942,32,283.998
	c0-4.424,3.576-8,8-8s8,3.576,8,8v0.072c0.512,1.24,5.112,3.536,7.576,4.776C62.12,292.118,72,297.054,72,307.998
	C72,312.422,68.424,315.998,64,315.998z"/>
<g>
</g>
<g>
</g>
<g>
</g>
<g>
</g>
<g>
</g>
<g>
</g>
<g>
</g>
<g>
</g>
<g>
</g>
<g>
</g>
<g>
</g>
<g>
</g>
<g>
</g>
<g>
</g>
<g>
</g>
</svg>
